<?xml version="1.0" encoding="UTF-8"?>
<svg id="Layer_2" data-name="Layer 2" xmlns="http://www.w3.org/2000/svg" viewBox="0 0 241.14 259.81">
  <defs>
    <style>
      .cls-1 {
        fill: #eba623;
      }

      .cls-2 {
        fill: #fff;
      }
    </style>
  </defs>
  <g id="Capa_1" data-name="Capa 1">
    <g>
      <path class="cls-2" d="m16.33,243.01c-.68-.64-1.45-1.14-2.33-1.52-1-.43-2.05-.62-3.14-.62s-2.13.2-3.14.62c-.96.41-1.82,1-2.57,1.74-.74.74-1.32,1.59-1.73,2.55-.41,1.01-.62,2.05-.62,3.14s.21,2.14.62,3.15c.41.96.98,1.81,1.73,2.55.74.74,1.61,1.33,2.57,1.74,1.01.41,2.05.62,3.14.62s2.14-.21,3.14-.62c.86-.37,1.63-.88,2.33-1.5l1.99,1.99c-.96.88-2.03,1.58-3.23,2.1-1.34.56-2.75.85-4.23.85s-2.88-.29-4.24-.85c-1.29-.56-2.45-1.33-3.46-2.33-1-1.01-1.77-2.17-2.33-3.47-.56-1.36-.85-2.76-.85-4.24s.29-2.88.85-4.23c.56-1.3,1.33-2.46,2.33-3.46,1.01-1.01,2.17-1.78,3.46-2.33,1.36-.57,2.78-.85,4.24-.85s2.88.28,4.23.85c1.21.5,2.29,1.2,3.23,2.1l-1.99,1.99Z"/>
      <path class="cls-2" d="m43.51,259.81h-12.63v-21.74h2.96v18.77h9.66v2.98Z"/>
      <path class="cls-2" d="m58.95,259.81h-2.96v-21.74h2.96v21.74Z"/>
      <path class="cls-2" d="m87.76,243.01c-.68-.64-1.45-1.14-2.33-1.52-1-.43-2.05-.62-3.14-.62s-2.13.2-3.14.62c-.96.41-1.82,1-2.57,1.74-.74.74-1.32,1.59-1.73,2.55-.41,1.01-.62,2.05-.62,3.14s.21,2.14.62,3.15c.41.96.98,1.81,1.73,2.55.74.74,1.61,1.33,2.57,1.74,1.01.41,2.05.62,3.14.62s2.14-.21,3.14-.62c.86-.37,1.63-.88,2.33-1.5l1.99,1.99c-.96.88-2.03,1.58-3.23,2.1-1.34.56-2.75.85-4.23.85s-2.88-.29-4.24-.85c-1.29-.56-2.45-1.33-3.46-2.33-1-1.01-1.77-2.17-2.33-3.47-.56-1.36-.85-2.76-.85-4.24s.29-2.88.85-4.23c.56-1.3,1.33-2.46,2.33-3.46,1.01-1.01,2.17-1.78,3.46-2.33,1.36-.57,2.78-.85,4.24-.85s2.88.28,4.23.85c1.21.5,2.29,1.2,3.23,2.1l-1.99,1.99Z"/>
      <path class="cls-2" d="m114.97,259.81l-9.77-11.83v11.83h-2.96v-21.74h2.96v7.02l7.02-7.02h4.19l-8.51,8.51,10.91,13.24h-3.84Z"/>
      <path class="cls-2" d="m159.99,257.11h-8.8l-1.08,2.7h-3.24l8.71-21.78,8.72,21.78h-3.23l-1.08-2.7Zm-1.21-3l-3.2-7.99-3.18,7.99h6.38Z"/>
      <path class="cls-2" d="m177.17,256.62c-2.13-2.13-3.19-4.69-3.19-7.68s1.06-5.56,3.19-7.68,4.69-3.19,7.68-3.19,5.56,1.06,7.68,3.19,3.19,4.68,3.19,7.68c0,2.43-.73,4.62-2.21,6.57l4.29,4.31h-4.19l-2.21-2.21c-1.94,1.46-4.12,2.21-6.57,2.21-2.99,0-5.56-1.06-7.68-3.19Zm7.68.33c1.65,0,3.16-.48,4.52-1.41l-2.42-2.41,2.1-2.1,2.41,2.42c.94-1.37,1.41-2.87,1.41-4.52,0-2.21-.78-4.09-2.35-5.66-1.57-1.57-3.46-2.35-5.66-2.35s-4.09.78-5.66,2.35c-1.57,1.57-2.35,3.46-2.35,5.66s.78,4.09,2.35,5.66c1.57,1.57,3.46,2.35,5.66,2.35Z"/>
      <path class="cls-2" d="m210.75,257.41c-1.59-1.61-2.39-3.54-2.39-5.78v-13.57h2.98v13.57c0,1.44.51,2.66,1.52,3.67,1.02,1.01,2.25,1.53,3.68,1.53s2.67-.52,3.68-1.53c1.01-1.01,1.51-2.23,1.51-3.67v-13.57h2.98v13.57c0,2.25-.8,4.17-2.39,5.78-1.59,1.59-3.52,2.39-5.78,2.39s-4.19-.8-5.78-2.39Z"/>
      <path class="cls-2" d="m241.14,235.01l-4.64,2.56-1.22-2.63,4.64-2.57,1.22,2.63Zm-1,24.8h-2.96v-21.74h2.96v21.74Z"/>
    </g>
    <g>
      <path class="cls-1" d="m36.6,118.68c0,48.1,39.5,87.1,88.23,87.1s88.23-38.99,88.23-87.1-37.28-84.85-84.08-86.99v35.14h39.48c1.91,0,3.69.94,4.73,2.54,1.05,1.58,1.2,3.56.43,5.29l-45.13,100.22c-.92,2.05-2.97,3.31-5.16,3.31-.38,0-.78-.04-1.17-.12-2.61-.55-4.47-2.82-4.47-5.44v-61.25h-39.48c-1.91,0-3.69-.96-4.73-2.54-1.04-1.57-1.21-3.57-.43-5.29l31.33-69.58c-38.87,9.11-67.8,43.57-67.8,84.72"/>
      <path class="cls-1" d="m128.98,31.68V5.57c0-2.63-1.86-4.9-4.47-5.44-2.65-.56-5.25.79-6.33,3.18l-13.8,30.64c6.56-1.54,13.4-2.37,20.44-2.37,1.39,0,2.78.04,4.15.1"/>
    </g>
  </g>
</svg>