<?xml version="1.0" encoding="UTF-8"?>
<svg id="Layer_2" data-name="Layer 2" xmlns="http://www.w3.org/2000/svg" viewBox="0 0 1059.39 400.17">
  <defs>
    <style>
      .cls-1 {
        letter-spacing: .4em;
      }

      .cls-2 {
        fill: none;
        stroke: #eba623;
        stroke-width: 3px;
      }

      .cls-2, .cls-3 {
        stroke-miterlimit: 10;
      }

      .cls-4 {
        letter-spacing: .23em;
      }

      .cls-5 {
        fill: #eba623;
      }

      .cls-6, .cls-3, .cls-7 {
        fill: #fff;
      }

      .cls-3 {
        stroke: #fff;
        stroke-width: .25px;
      }

      .cls-8 {
        font-family: Tiza, Tiza;
        font-size: 50.37px;
      }

      .cls-7 {
        font-family: AlpacaScarlettDemo, 'Alpaca Scarlett Demo';
        font-size: 43.89px;
      }

      .cls-9 {
        letter-spacing: .35em;
      }
    </style>
  </defs>
  <g id="Capa_1" data-name="Capa 1">
    <path class="cls-3" d="m70.32,286.28v-124.46h38.42v-47.92h-38.42v-32.75c0-9.19,3.32-17.07,9.95-23.62,6.64-6.55,14.61-9.83,23.92-9.83,6.29,0,12.45,1.84,18.51,5.52.23,0,.52.23.87.69.35.46.64.69.87.69l28.99-38.27c-1.17-.92-3.84-2.64-8.03-5.17C133.07,3.81,119.34.12,104.2.12c-22.82,0-42.2,7.93-58.15,23.79-15.95,15.86-23.93,34.94-23.93,57.23v32.75H.12v47.92h22v124.46h48.2Z"/>
    <path class="cls-3" d="m449.86,114.59c-13.5-7.35-28.52-11.03-45.05-11.03-27.24,0-50.53,9.25-69.85,27.75-19.33,18.5-28.99,41.2-28.99,68.09s9.66,49.82,28.99,68.78c19.32,18.96,42.61,28.44,69.85,28.44,17.46,0,32.48-3.45,45.05-10.34h48.2V10.47h-48.2v104.12Zm-11,119.46c-8.27,10-19.62,15-34.05,15s-25.84-4.88-35.62-14.65c-9.78-9.76-14.67-21.43-14.67-34.99s4.89-25.51,14.67-35.17c9.78-9.65,21.66-14.48,35.62-14.48s25.79,5,34.05,15c8.26,10,12.4,21.55,12.4,34.65s-4.14,24.65-12.4,34.65"/>
    <path class="cls-3" d="m604.93,103.56c-26.78,0-49.71,9.48-68.8,28.44-19.1,18.96-28.64,41.78-28.64,68.43s9.48,49.07,28.46,67.92c18.98,18.84,41.96,28.27,68.98,28.27s47.73-9.65,64.96-28.96l-42.96-24.13c-6.52,3.91-13.86,5.86-22,5.86-8.85,0-17.41-2.81-25.67-8.45-8.26-5.63-14.14-12.35-17.64-20.17h133.07c1.4-5.97,2.1-12.76,2.1-20.34,0-26.89-8.68-49.76-26.02-68.61-17.35-18.84-39.29-28.27-65.83-28.27m-43.66,76.88c6.75-19.76,21.31-29.65,43.66-29.65,9.54,0,17.75,2.65,24.62,7.93,6.86,5.29,11.7,12.53,14.49,21.72h-82.77Z"/>
    <path class="cls-3" d="m753.71,173.54c0-6.21,2.21-11.43,6.64-15.69,4.42-4.25,9.78-6.38,16.06-6.38,5.12,0,9.89,1.61,14.32,4.83l31.09-36.55c-13.51-10.8-28.64-16.2-45.4-16.2-13.04,0-24.92,3.45-35.62,10.34h-35.28v172.38h48.2v-112.74Z"/>
    <path class="cls-3" d="m828.1,301.79c0,14.02-4.95,25.97-14.84,35.86-9.89,9.88-21.95,14.82-36.15,14.82-7.45,0-14.44-1.61-20.96-4.83l-17.46,44.47c11.64,5.29,24.45,7.93,38.42,7.93,27.48,0,50.93-9.6,70.37-28.79,19.44-19.19,29.16-42.35,29.16-69.47V113.55h-48.55v188.24Z"/>
    <rect class="cls-3" x="828.1" y="10.47" width="48.55" height="49.64"/>
    <g>
      <path class="cls-5" d="m118.3,200.09c0,48.1,39.5,87.1,88.23,87.1s88.23-38.99,88.23-87.1-37.28-84.85-84.08-86.99v35.14h39.48c1.91,0,3.69.94,4.73,2.54,1.05,1.58,1.2,3.56.43,5.29l-45.13,100.22c-.92,2.05-2.97,3.31-5.16,3.31-.38,0-.78-.04-1.17-.12-2.61-.55-4.47-2.82-4.47-5.44v-61.25h-39.48c-1.91,0-3.69-.96-4.73-2.54-1.04-1.57-1.21-3.57-.43-5.29l31.33-69.58c-38.87,9.11-67.8,43.57-67.8,84.72"/>
      <path class="cls-5" d="m210.69,113.09v-26.11c0-2.63-1.86-4.9-4.47-5.44-2.65-.56-5.25.79-6.33,3.18l-13.8,30.64c6.56-1.54,13.4-2.37,20.44-2.37,1.39,0,2.78.04,4.15.1"/>
    </g>
    <text class="cls-7" transform="translate(234.6 374.33)"><tspan class="cls-1" x="0" y="0">ESTR</tspan><tspan class="cls-4" x="167.46" y="0">A</tspan><tspan class="cls-1" x="207.3" y="0">TÉGI</tspan><tspan class="cls-9" x="369.85" y="0">C</tspan><tspan class="cls-1" x="417.28" y="0">O</tspan></text>
    <text class="cls-8" transform="translate(948.09 159.23) rotate(35.81)"><tspan class="cls-6"><tspan x="0" y="0">20</tspan></tspan><tspan class="cls-5"><tspan x="0" y="60.44">23</tspan></tspan></text>
    <rect class="cls-2" x="901.89" y="113.59" width="156" height="161"/>
  </g>
</svg>