<?xml version="1.0" encoding="UTF-8"?>
<svg id="Layer_2" data-name="Layer 2" xmlns="http://www.w3.org/2000/svg" viewBox="0 0 259.54 50.73">
  <defs>
    <style>
      .cls-1 {
        fill: #eba623;
      }

      .cls-2 {
        fill: #fff;
      }
    </style>
  </defs>
  <g id="Capa_1" data-name="Capa 1">
    <g>
      <g>
        <path class="cls-2" d="m38.17,26.18c0-2.97,2.4-5.37,5.35-5.37,2.07,0,3.97.7,5.48,1.88l-2.56,2.57c-.83-.54-1.84-.87-2.92-.87-.99,0-1.79.8-1.79,1.79,0,.42.17.83.43,1.16.56.63,1.47.75,2.38.8,2.92.14,5.16,2.17,5.16,5.18s-2.41,5.35-5.35,5.35c-2.41,0-4.58-.94-6.17-2.48l2.52-2.52c.97.9,2.23,1.44,3.65,1.44.96,0,1.76-.8,1.76-1.79,0-.54-.21-1.08-.7-1.36-.85-.5-2.27-.35-3.16-.57-2.33-.59-4.07-2.68-4.07-5.2Z"/>
        <path class="cls-2" d="m51.32,20.81h3.55v17.85h-3.55v-17.85Z"/>
        <path class="cls-2" d="m67.83,20.81h3.55v17.85h-4.14l-7.16-11.9v11.9h-3.55v-17.85h4.17l7.13,11.92v-11.92Z"/>
        <path class="cls-2" d="m87.21,38.66l-3.58-8.93v8.93h-3.55v-17.85h3.84l5.23,13.05,5.2-13.05h3.84v17.85h-3.55v-8.93l-3.59,8.93h-3.84Z"/>
        <path class="cls-2" d="m99.82,20.81h3.55v17.85h-3.55v-17.85Z"/>
        <path class="cls-2" d="m105.01,20.81h10.77v3.58h-7.22v3.55h7.22v3.58h-7.22v3.55h7.22v3.58h-10.77v-17.85Z"/>
        <path class="cls-2" d="m117.41,20.81h5c4.92,0,8.92,4.01,8.92,8.92s-4.01,8.93-8.92,8.93h-5v-17.85Zm5,14.27c2.97,0,5.35-2.38,5.35-5.35s-2.38-5.34-5.35-5.34h-1.44v10.69h1.44Z"/>
        <path class="cls-2" d="m150.82,29.73c0,4.92-4.01,8.93-8.92,8.93s-8.92-4.01-8.92-8.93,4.01-8.92,8.92-8.92,8.92,4.01,8.92,8.92Zm-14.29,0c0,2.97,2.4,5.38,5.37,5.38s5.35-2.4,5.35-5.38-2.4-5.34-5.35-5.34-5.37,2.4-5.37,5.34Z"/>
        <path class="cls-2" d="m172.41,38.66l-1.82-5h-5.49l-1.8,5h-3.8l6.46-17.85h3.79l6.46,17.85h-3.8Zm-4.57-12.6l-1.44,4.03h2.89l-1.45-4.03Z"/>
        <path class="cls-2" d="m177.36,20.81h3.55v14.27h6.5v3.58h-10.06v-17.85Z"/>
        <path class="cls-2" d="m196.11,38.66v-17.85h10.76v3.58h-7.21v3.55h7.21v3.58h-7.21v3.55h7.21v3.58h-10.76Zm7.14-22.12l-2.29,2.87h-1.24l.68-2.87h2.85Z"/>
        <path class="cls-2" d="m208.52,38.66l5.35-8.93-5.35-8.92h4.17l3.27,5.46,3.26-5.46h4.17l-5.35,8.92,5.35,8.93h-4.17l-3.26-5.44-3.27,5.44h-4.17Z"/>
        <path class="cls-2" d="m224.54,20.81h3.55v17.85h-3.55v-17.85Z"/>
        <path class="cls-2" d="m238.34,24.39v14.27h-3.58v-14.27h-5.02v-3.58h13.61v3.58h-5.02Z"/>
      </g>
      <path class="cls-1" d="m243.72,31.03c0,4.31,3.54,7.81,7.91,7.81s7.91-3.5,7.91-7.81-3.34-7.61-7.54-7.8v3.15h3.54c.17,0,.33.08.42.23.09.14.11.32.04.47l-4.05,8.99c-.08.18-.27.3-.46.3-.03,0-.07,0-.11-.01-.23-.05-.4-.25-.4-.49v-5.49h-3.54c-.17,0-.33-.09-.42-.23-.09-.14-.11-.32-.04-.47l2.81-6.24c-3.49.82-6.08,3.91-6.08,7.6"/>
      <path class="cls-1" d="m252,23.23v-2.34c0-.24-.17-.44-.4-.49-.24-.05-.47.07-.57.29l-1.24,2.75c.59-.14,1.2-.21,1.83-.21.12,0,.25,0,.37,0"/>
      <g>
        <path class="cls-2" d="m28.12,5.65c-1.61,0-3.41,1.48-3.93,3.22-.36,1.2-.92,2.66-1.47,4.07-.5,1.3-.98,2.53-1.23,3.41-.15.53-.39,1.04-.62,1.48-.4-.35-.94-.65-1.65-.84-.34-.09-.69-.14-1.04-.14-.58,0-1.08.12-1.5.3-.12-.2-.27-.4-.46-.59-.46-.46-1.32-1-2.81-1-1.76,0-2.97.88-3.71,1.85-.46-.74-.96-1.74-1.17-2.87-.45-2.39-1.29-6.85-1.79-11.02-.31-2.58-1.9-3.5-3.28-3.5-.85,0-1.7.35-2.34.96C.37,1.66-.03,2.61,0,3.64c.07,2.78,1.23,12.51,1.95,15.76.56,2.53.65,3.9.9,7.98.04.72.09,1.53.15,2.43.24,3.76,1.86,6.21,3.04,8,.79,1.2,1.41,2.14,1.37,3.02-.14,2.83.38,8.72.4,8.97.05.53.52.93,1.1.93h14.52c.59,0,1.07-.43,1.1-.97l.44-9.11c.09-1.87.59-3.96,1.36-7.13l.14-.58c.65-2.7.41-4.91.22-6.68-.07-.68-.14-1.32-.15-1.9-.03-2.14.1-3.59.94-5.99.21-.6.41-1.17.6-1.71.91-2.56,1.64-4.58,2.16-7.51.23-1.26.06-2.2-.51-2.82-.4-.43-.97-.67-1.61-.67Zm-9.21,12.31c.41.11.74.27.99.45.05.08.09.18.12.3-.25-.05-.51-.1-.78-.13-.87-.11-1.72-.07-1.72-.07,0,0,.84.15,1.62.44.36.13.71.28.94.42-.04,2.35-2.07,7.34-2.31,8.13-.04.13-.11.27-.19.41-.28-.02-.65-.07-1.01-.15-.76-.16-1.48-.51-1.48-.51,0,0,.15.13.39.3.24.17.58.39.94.57.26.13.53.24.78.33-.4.49-.9.94-1.17,1.17-.06-.06-.12-.12-.19-.18-.16-.14-.32-.29-.49-.42-.33-.27-.68-.53-1.03-.77-.25-.18-.51-.35-.77-.51.4-.34.93-.9,1.41-1.72.84-1.46,1.49-5.51,1.8-7.76.36-.21.84-.39,1.41-.39.23,0,.48.03.73.1Zm-3.43-.65c-.14-.05-.28-.1-.43-.15-.7-.23-1.42-.34-1.42-.34,0,0,.66.29,1.24.68.47.3.89.65,1.03.78-.07.45-.18.92-.29,1.37-.07-.24-.16-.47-.27-.7-.31-.6-.77-1.13-1.37-1.52-.3-.19-.64-.34-1.02-.42-.37-.08-.78-.09-1.17.03-.16.04-.31.11-.45.19.51-.39,1.19-.67,2.07-.67,1.07,0,1.7.34,2.07.75ZM1.1,3.61c-.04-1.52,1.17-2.6,2.35-2.6.01,0,.02,0,.03,0,1.53.12,2.07,3.14,1.74,5.2-.04.02-.09.04-.14.05-.18.06-.37.12-.57.17-.78.24-1.55.48-1.55.48,0,0,.82-.05,1.63-.1.21-.01.41-.03.6-.04.02,0,.04,0,.06,0,.31.67,1.24,2.88,1.03,5.07-.28.13-.64.28-1.02.4-.83.3-1.72.47-1.72.47,0,0,.91.02,1.82-.1.37-.04.74-.11,1.05-.17.38.92,1.32,3.46,1.16,6.13-.24.15-.62.37-1.03.56-.67.32-1.4.55-1.4.55,0,0,.77-.03,1.53-.19.37-.07.73-.16,1-.24.13.32.36.85.65,1.49-.15.15-.3.28-.48.4-.06.04-.12.07-.18.11l-.21.12c-.07.04-.16.1-.23.15-.07.05-.15.11-.21.16-.28.23-.51.5-.69.79-.37.58-.56,1.21-.7,1.81l-.2.9c-.03.14-.07.3-.1.43-.04.15-.08.29-.13.42-.18.56-.4,1.12-.61,1.68v-1.61s-.59,2.09-.59,2.09c-.18-2.89-.27-4.56-.45-6.02.23.15.46.27.65.36.23.1.38.15.38.15,0,0-.13-.1-.29-.26-.17-.16-.36-.4-.52-.64-.16-.25-.28-.51-.35-.7-.01-.04-.03-.07-.04-.11-.09-.56-.21-1.14-.35-1.79-.68-3.05-1.86-12.78-1.93-15.58Zm7.41,37.26c.01-.22,0-.44-.05-.66.04.02.07.04.11.06.6.32,1.23.56,1.23.56,0,0-.52-.41-.98-.86-.28-.27-.53-.56-.69-.75-.77-1.68-2.54-3.48-3.47-6.42.32.44.69.85.98,1.14.29.29.5.47.5.47,0,0-.17-.21-.4-.54-.23-.33-.5-.79-.73-1.26-.22-.47-.4-.96-.5-1.33-.05-.19-.09-.35-.12-.46.09-.37.2-.74.33-1.11.19-.57.41-1.14.62-1.71.21-.57.43-1.14.63-1.74.05-.16.09-.31.13-.45.04-.16.08-.31.11-.46l.19-.89c.11-.48.26-.95.48-1.37l1.19.33-.87-.81c.11-.13.22-.26.36-.37.05-.04.11-.09.16-.13.06-.04.1-.07.17-.11l.21-.12c.07-.05.15-.09.23-.14.59-.39,1.03-.94,1.38-1.46.03-.05.06-.09.09-.14.04.09.09.17.15.25.2.25.48.42.73.55.26.12.5.25.8.35.28.1.62.14.94.07.34-.06.58-.27.74-.46.16-.2.26-.39.36-.56.4-.69.63-1.18.63-1.18,0,0-.38.39-.89,1.02-.13.16-.26.33-.41.47-.08.07-.16.13-.24.18-.02.01-.04.02-.07.03l-.07.03s-.09.02-.14.03c-.21.03-.43-.01-.66-.09-.23-.08-.47-.21-.71-.33-.23-.12-.44-.25-.58-.4-.13-.16-.21-.34-.17-.51,0-.04.02-.08.04-.12.16-.24.33-.47.51-.69.19-.24.37-.44.61-.67.2-.2.39-.33.64-.4.48-.15,1.06,0,1.53.3.48.3.87.74,1.12,1.23.2,1.6-1.06,4.11-3.2,5.57l-2.47.91,1.35-.02c0,.05,0,.13,0,.25,0,.2-.01.49,0,.82,0,.68.1,1.56.1,2.41,0,.21,0,.43-.02.64-.01.21-.03.42-.06.62-.02.2-.07.39-.1.58-.04.18-.08.35-.12.51-.09.31-.16.58-.23.76-.06.18-.09.29-.09.29,0,0,.05-.1.15-.27.1-.17.22-.42.37-.72.07-.15.14-.32.22-.5.07-.18.15-.37.21-.57.07-.2.13-.41.19-.62.06-.21.11-.44.15-.66.04-.17.06-.35.09-.52.56.44,1.55.47,2.66.72.06.16.13.36.18.58.12.49.13,1,.13,1,0,0,.2-.48.29-1.01.02-.13.04-.27.05-.4.53.17,1.08.41,1.61.8h.01c.07.08.14.17.21.24.11.12.21.26.3.41h0s0,0,0,0c.01.02.02.03.03.05.2.33.34.7.44,1.08.1.38.17.77.2,1.17.04.4.05.8.02,1.2.05-.2.09-.4.11-.6.03-.2.05-.4.06-.61.02-.41,0-.82-.06-1.23-.01-.09-.03-.17-.05-.26.34.44.57.95.57.95,0,0-.03-.56-.21-1.13-.06-.2-.13-.39-.2-.56,1.15-1.37,1.92-3.49,2.43-5.57l1.21.19-1.03-.67c.21-.54.4-1.11.57-1.69.28,0,.64-.02.99-.07.37-.06.73-.17.99-.27.26-.1.42-.18.42-.18,0,0-.18.04-.45.06-.27.03-.62.03-.97,0-.29-.03-.58-.09-.8-.15.32-1.23.51-2.5.45-3.74.39-.59.91-1.48,1.19-2.48.5-1.74,1.98-5.09,2.69-7.46.4-1.35,1.84-2.48,2.88-2.48.11,0,.22.01.32.04.88.22,1.03,3.05-.45,5.28l-1.99-.2,1.91.88c.02.36.02.89-.1,1.46-.1.31-.21.62-.32.94-.19.38-.45.75-.81,1.08l-1.74-.3,1.6.89c-.11.83-.5,2.56-1.85,4.34-.09,0-.19-.02-.28-.04-.51-.07-1.01-.25-1.01-.25,0,0,.39.34.86.61.07.04.15.09.23.12-.39,1.28-.37,4.39-.28,6.35.16,3.54-.7,9.11-2.33,11.77h0s-.31.34-.68.65c-.37.31-.79.58-.79.58,0,0,.5-.09,1-.25,0,0,.01,0,.02,0,.1.27.25.78.34,1.59.12,1.1-.34,6.15-.47,7.5h-12.36s-.53-6.04-.4-8.84Zm17.19-8.45c-.16.74-.35,1.49-.53,2.26-.18.77-.36,1.55-.52,2.33-.17.78-.32,1.56-.42,2.34-.11.77-.13,1.54-.17,2.29-.09,1.49-.17,2.89-.24,4.08-.08,1.19-.14,2.19-.19,2.89-.05.7-.08,1.09-.08,1.09,0,0,0-.4.03-1.1.02-.7.05-1.7.09-2.89.05-1.2.1-2.59.15-4.09.04-.74.05-1.52.15-2.31.1-.78.24-1.58.4-2.36.17-.78.35-1.56.54-2.33.18-.77.38-1.52.54-2.25.16-.73.27-1.44.32-2.12.05-.68.05-1.33.03-1.92-.05-1.19-.17-2.19-.22-2.88-.03-.35-.04-.62-.04-.81,0-.19,0-.29,0-.29,0,0,0,.1.02.29.01.19.04.46.08.81.07.69.24,1.68.32,2.88.08,1.2.06,2.61-.26,4.09Z"/>
        <path class="cls-2" d="m17.22,36.14c-.13.21-.3.44-.48.67-.17.25-.37.5-.58.74-.19.26-.4.5-.61.73-.2.23-.39.45-.56.62-.16.19-.31.34-.41.44-.1.11-.16.17-.16.17,0,0,.08-.04.22-.1.14-.07.33-.17.55-.31.22-.14.45-.33.71-.53.23-.22.47-.47.7-.72.2-.27.39-.55.55-.82.14-.28.26-.55.35-.78.08-.24.13-.44.16-.58.02-.14.04-.22.04-.22,0,0-.05.07-.14.19-.08.12-.19.29-.34.49Z"/>
        <path class="cls-2" d="m15.47,42.33c-.32,0-.7-.03-1.1-.05-.4-.02-.83-.06-1.26-.11-.43-.04-.85-.1-1.25-.17-.4-.07-.77-.13-1.08-.2-.32-.07-.58-.12-.76-.16-.19-.04-.29-.06-.29-.06,0,0,.1.04.27.11.18.06.43.16.74.25.31.09.68.2,1.08.28.4.08.83.15,1.26.21.43.04.87.07,1.28.08.41,0,.79-.01,1.12-.03.33-.02.6-.06.78-.08.19-.03.29-.05.29-.05,0,0-.11,0-.3,0-.19,0-.46,0-.78-.01Z"/>
      </g>
    </g>
  </g>
</svg>